<svg width="35" height="34" viewBox="0 0 35 34" fill="none" xmlns="http://www.w3.org/2000/svg">
<path d="M24.9685 12.1977C25.0405 12.1977 25.1124 12.1977 25.1844 12.1977C24.4289 7.01727 20.1478 2.95204 14.8594 2.52034C14.3558 2.48436 13.8881 2.88009 13.8881 3.38375V12.9892C13.8881 13.4928 13.4924 13.8886 13.0247 13.8886H3.38326C2.8796 13.8886 2.48388 14.3563 2.51985 14.8599C2.98753 20.544 7.62836 25.041 13.3844 25.2928C13.3125 24.8251 13.3125 24.3574 13.3125 23.8897C13.2765 17.4142 18.4929 12.1977 24.9685 12.1977Z" fill="#101011"/>
<path d="M11.3705 10.5071V0.901656C11.3705 0.362024 10.9028 -0.0337057 10.3992 0.00226973C4.89493 0.46995 0.46995 4.89493 0.00226973 10.3992C-0.0337057 10.9388 0.362024 11.3705 0.901656 11.3705H10.5071C10.9748 11.3705 11.3705 10.9748 11.3705 10.5071Z" fill="#101011"/>
<path d="M24.9678 14.6445C19.8592 14.6445 15.758 18.7817 15.758 23.8542C15.7221 28.9628 19.8592 33.0999 24.9678 33.0999C30.0403 33.0999 34.1775 28.9628 34.1775 23.8542C34.1775 18.7817 30.0403 14.6445 24.9678 14.6445ZM25.8671 28.4231V29.4304C25.8671 29.6463 25.6873 29.7902 25.5074 29.7902H24.4281C24.2123 29.7902 24.0684 29.6103 24.0684 29.4304V28.4591C22.9531 28.3152 22.0537 27.4158 21.9458 26.3006C21.9458 26.1926 21.9818 26.1207 22.0537 26.0128C22.1257 25.9408 22.2336 25.9048 22.3415 25.9048H23.4568C23.6367 25.9048 23.7806 26.0128 23.8165 26.1926C23.8885 26.4805 24.1403 26.6603 24.4281 26.6603H25.3995C25.9031 26.6603 26.3708 26.3006 26.4068 25.8329C26.4428 25.5451 26.3348 25.2933 26.1549 25.1134C25.9751 24.8975 25.7232 24.7896 25.4714 24.7896H24.7519C23.2769 24.7896 22.0178 23.7103 21.8739 22.3073C21.73 20.8683 22.7013 19.5732 24.1403 19.3213V18.35C24.1403 18.1341 24.3202 17.9902 24.5001 17.9902H25.5793C25.7952 17.9902 25.9391 18.1701 25.9391 18.35V19.3213C27.0543 19.4652 27.9537 20.3646 28.0616 21.4799C28.0616 21.5878 28.0257 21.6597 27.9897 21.7677C27.9177 21.8396 27.8098 21.8756 27.7019 21.8756H26.5867C26.4068 21.8756 26.2629 21.7677 26.2269 21.5878C26.1549 21.3 25.9031 21.1201 25.6153 21.1201H24.644C24.1403 21.1201 23.6726 21.4799 23.6367 21.9835C23.6007 22.2713 23.7086 22.5232 23.8885 22.703C24.0684 22.9189 24.3202 23.0268 24.608 23.0268H25.3635C26.1549 23.0268 26.8745 23.3506 27.4141 23.9262C27.9537 24.5018 28.2055 25.2573 28.1336 26.0487C28.0257 27.2 27.0903 28.1713 25.8671 28.4231Z" fill="#101011"/>
</svg>
