<svg width="33" height="28" viewBox="0 0 33 28" fill="none" xmlns="http://www.w3.org/2000/svg">
<path d="M14.9275 22.6924V17.2568H13.2591V22.6924C12.1913 23.0637 11.4238 24.0766 11.4238 25.2582C11.4238 26.7437 12.6251 27.9591 14.1267 27.9591C15.5949 27.9591 16.7962 26.7437 16.7962 25.2582C16.7628 24.0766 15.9953 23.0637 14.9275 22.6924Z" fill="#101011"/>
<path d="M8.75465 19.2825L6.01843 19.7214C5.61801 19.7889 5.31769 20.1603 5.31769 20.5654V22.6924C4.2499 23.0637 3.48242 24.0766 3.48242 25.2582C3.48242 26.7437 4.68369 27.9591 6.1519 27.9591C7.62012 27.9591 8.85475 26.7437 8.85475 25.2582C8.85475 24.0766 8.08728 23.0637 7.01948 22.6924V21.2744L9.7557 20.8355C10.1561 20.768 10.4564 20.4304 10.4564 19.9915V17.2568H8.78801V19.2825H8.75465Z" fill="#101011"/>
<path d="M18.998 13.5429C19.4652 13.0703 20.0658 12.8002 20.7332 12.8002C21.1003 12.8002 21.4339 12.8677 21.7676 13.0365C22.1013 12.0574 23.0356 11.3822 24.0701 11.3822H25.605C26.3057 11.3822 26.9731 11.6861 27.4069 12.2263C27.5737 11.7536 27.6739 11.2134 27.6739 10.6732C27.6739 8.27621 25.9387 6.31807 23.6696 5.91293C23.6029 2.80691 21.0669 0.308594 17.9636 0.308594C15.828 0.308594 14.0261 1.49023 13.0251 3.21205C12.1909 2.63811 11.1898 2.3005 10.0886 2.3005C7.45253 2.3005 5.31695 4.25864 4.91653 6.82448C4.88316 6.82448 4.84979 6.82448 4.78305 6.82448C2.41389 6.79072 0.478516 8.74886 0.478516 11.1459C0.478516 13.5429 2.41389 15.5011 4.78305 15.5011H17.363C17.4631 15.1972 17.6633 14.8934 17.8969 14.6571L18.998 13.5429Z" fill="#101011"/>
<path d="M31.5441 19.0459L30.2093 18.8433C30.0425 18.4382 30.0091 18.3369 29.8423 17.898L30.6431 16.8177C30.8433 16.5138 30.8433 16.1087 30.5764 15.8723L29.4752 14.7582C29.2083 14.4881 28.8079 14.4881 28.5409 14.6907L27.4731 15.501C27.0727 15.3322 26.9726 15.2984 26.5388 15.1296L26.3386 13.7792C26.2718 13.4078 25.9715 13.1377 25.6045 13.1377H24.0695C23.7025 13.1377 23.4022 13.4078 23.3688 13.7792L23.1686 15.1296C22.7682 15.2984 22.668 15.3322 22.2343 15.501L21.1665 14.6907C20.8661 14.4881 20.4657 14.4881 20.2321 14.7582L19.131 15.8723C18.864 16.1424 18.864 16.5476 19.0642 16.8177L19.8651 17.898C19.6983 18.3031 19.6649 18.4044 19.498 18.8433L18.1633 19.0459C17.7962 19.1134 17.5293 19.4173 17.5293 19.7549V21.3079C17.5293 21.6792 17.7962 21.9831 18.1633 22.0506L19.498 22.2532C19.6649 22.6583 19.6983 22.7596 19.8651 23.1985L19.0642 24.2789C18.864 24.5827 18.864 24.9878 19.131 25.2242L20.2321 26.3383C20.4991 26.6084 20.8995 26.6421 21.1665 26.4058L22.2343 25.5955C22.6347 25.7643 22.7348 25.7981 23.1686 25.9669L23.3688 27.3173C23.4355 27.6887 23.7358 27.9588 24.0695 27.9588H25.6045C25.9715 27.9588 26.2718 27.6887 26.3386 27.3173L26.5388 25.9669C26.9392 25.7981 27.0393 25.7643 27.4731 25.5955L28.5409 26.4058C28.8412 26.6084 29.2416 26.6084 29.4752 26.3383L30.5764 25.2242C30.8433 24.9541 30.8767 24.5489 30.6431 24.2789L29.8423 23.1647C30.0091 22.7596 30.0425 22.6583 30.2093 22.2532L31.5441 22.0506C31.9111 21.9831 32.1781 21.6792 32.1781 21.3079V19.7549C32.1781 19.4173 31.9111 19.1134 31.5441 19.0459ZM24.837 23.3335C23.3354 23.3335 22.1008 22.0844 22.1008 20.5651C22.1008 19.0459 23.3354 17.7967 24.837 17.7967C26.3386 17.7967 27.5732 19.0459 27.5732 20.5651C27.5732 22.1181 26.372 23.3335 24.837 23.3335Z" fill="#101011"/>
</svg>
