<svg width="35" height="35" viewBox="0 0 35 35" fill="none" xmlns="http://www.w3.org/2000/svg">
<path d="M11.5326 4.82812H16.1777V2.70312C16.1777 1.23688 15.0216 0.046875 13.5971 0.046875C12.9623 0.046875 12.3584 0.285937 11.8939 0.705625C11.61 0.620625 11.3158 0.578125 11.0164 0.578125C9.67967 0.578125 8.52354 1.44938 8.09515 2.70844C8.03838 2.70313 7.98161 2.70312 7.91967 2.70312C6.66031 2.70312 5.60741 3.63812 5.38031 4.87062C5.36999 4.87062 5.35451 4.87594 5.34419 4.88125C5.35967 5.13625 5.50419 6.0925 6.53644 6.44844C6.80483 6.54406 6.94935 6.84156 6.86161 7.12312C6.78935 7.34625 6.58806 7.48438 6.37128 7.48438C6.31967 7.48438 6.2629 7.47375 6.20612 7.45781C5.00354 7.04344 4.51322 6.05 4.36354 5.31688C3.7029 5.80031 3.27451 6.59188 3.27451 7.48438C3.27451 7.65437 3.28999 7.81906 3.32096 7.98375C2.79967 8.36094 2.43838 8.91875 2.30419 9.56688C1.75193 9.96531 1.37515 10.5709 1.26161 11.2509C2.06677 10.8578 3.35193 10.555 5.01386 11.2403C5.27709 11.3519 5.40612 11.66 5.3029 11.9309C5.19451 12.2019 4.89515 12.3347 4.63193 12.2284C2.41773 11.3147 1.11193 12.5897 1.05515 12.6428C1.01902 12.68 0.982896 12.7066 0.941605 12.7278C0.776444 13.0838 0.693863 13.4662 0.693863 13.8594C0.693863 14.0188 0.709347 14.1781 0.735154 14.3375C0.373863 14.805 0.177734 15.3841 0.177734 15.9844C0.177734 16.4519 0.301605 16.9088 0.523541 17.3125C0.301605 17.7162 0.177734 18.1731 0.177734 18.6406C0.177734 18.9381 0.224186 19.2303 0.317089 19.5066C0.833218 18.8797 1.75193 18.3113 2.96999 18.8797C3.23322 18.9966 3.34677 19.3153 3.22806 19.5809C3.10935 19.8466 2.80483 19.9688 2.54677 19.8466C1.48354 19.3525 0.946767 20.3991 0.889992 20.5213C0.859025 20.585 0.817734 20.6434 0.766121 20.6806C0.71967 20.8825 0.693863 21.0897 0.693863 21.2969C0.693863 21.8972 0.889992 22.4762 1.25128 22.9437C1.22548 23.1031 1.20999 23.2625 1.20999 23.4219C1.20999 24.2825 1.6229 25.0847 2.2887 25.5788C2.25773 25.7381 2.24225 25.9081 2.24225 26.0781C2.24225 27.215 2.9287 28.2031 3.94548 28.5803C4.18806 29.2762 4.69902 29.8287 5.35967 30.1156C5.4887 31.2259 6.2887 32.145 7.36225 32.3894C7.84225 33.0906 8.62677 33.5156 9.46806 33.5156H9.47322C10.2732 34.1372 11.4293 34.2116 12.3068 33.6909C12.699 33.9194 13.1429 34.0469 13.5971 34.0469C15.0216 34.0469 16.1777 32.8569 16.1777 31.3906V19.7031H11.5326C10.9648 19.7031 10.5003 20.1812 10.5003 20.7656C10.5003 21.0578 10.2681 21.2969 9.98419 21.2969C9.70031 21.2969 9.46806 21.0578 9.46806 20.7656C9.46806 19.5916 10.3919 18.6406 11.5326 18.6406H16.1777V17.5781H5.85515C4.43064 17.5781 3.27451 16.3881 3.27451 14.9219C3.27451 14.6297 3.50677 14.3906 3.79064 14.3906C4.07451 14.3906 4.30677 14.6297 4.30677 14.9219C4.30677 15.7984 5.00354 16.5156 5.85515 16.5156H16.1777V5.89062H11.5326C10.9648 5.89062 10.5003 6.36875 10.5003 6.95312C10.5003 7.24531 10.2681 7.48438 9.98419 7.48438C9.70031 7.48438 9.46806 7.24531 9.46806 6.95312C9.46806 5.77906 10.3919 4.82812 11.5326 4.82812ZM8.95193 29.7969C8.66806 29.7969 8.4358 29.5578 8.4358 29.2656C8.4358 28.9734 8.66806 28.7344 8.95193 28.7344C9.80354 28.7344 10.5003 28.0172 10.5003 27.1406C10.5003 26.8484 10.7326 26.6094 11.0164 26.6094C11.3003 26.6094 11.5326 26.8484 11.5326 27.1406C11.5326 28.6069 10.3764 29.7969 8.95193 29.7969ZM13.5971 29.2656C13.5971 29.5578 13.3648 29.7969 13.081 29.7969C12.7971 29.7969 12.5648 30.0359 12.5648 30.3281C12.5648 30.6203 12.3326 30.8594 12.0487 30.8594C11.7648 30.8594 11.5326 30.6203 11.5326 30.3281C11.5326 29.4516 12.2293 28.7344 13.081 28.7344C13.3648 28.7344 13.5971 28.9734 13.5971 29.2656ZM8.80225 23.6769C9.39064 23.0766 10.1648 22.7419 10.9958 22.7419C11.8268 22.7419 12.601 23.0766 13.1842 23.6769C13.3855 23.8841 13.3855 24.2187 13.1842 24.4259C12.9829 24.6331 12.6526 24.6331 12.4513 24.4259C11.6719 23.6237 10.3145 23.6237 9.53515 24.4259C9.12225 24.8509 8.90031 25.4406 8.93128 26.0409C8.94677 26.3331 8.72999 26.5828 8.44096 26.5987H8.41515C8.14161 26.5987 7.91451 26.3809 7.89902 26.0941C7.85773 25.1962 8.18289 24.3144 8.80225 23.6769ZM6.22161 26.1419C6.11838 26.2481 5.98935 26.2959 5.85515 26.2959C5.72096 26.2959 5.59193 26.2481 5.4887 26.1419C5.28741 25.9347 5.28741 25.6 5.4887 25.3928C5.58677 25.2919 5.64354 25.1591 5.64354 25.0156C5.64354 24.8722 5.58677 24.7394 5.4887 24.6384C5.28741 24.4313 5.28741 24.0966 5.4887 23.8894C5.68999 23.6822 6.02031 23.6822 6.22161 23.8894C6.51064 24.1922 6.6758 24.5906 6.6758 25.0156C6.6758 25.4406 6.51064 25.8391 6.22161 26.1419ZM4.8229 21.2969C5.67451 21.2969 6.37128 20.5797 6.37128 19.7031C6.37128 19.4109 6.60354 19.1719 6.88741 19.1719C7.17128 19.1719 7.40354 19.4109 7.40354 19.7031C7.40354 21.1694 6.24741 22.3594 4.8229 22.3594C4.53902 22.3594 4.30677 22.1203 4.30677 21.8281C4.30677 21.5359 4.53902 21.2969 4.8229 21.2969ZM6.88741 14.9219C6.60354 14.9219 6.37128 14.6828 6.37128 14.3906C6.37128 14.0984 6.60354 13.8594 6.88741 13.8594C7.73902 13.8594 8.4358 13.1422 8.4358 12.2656C8.4358 11.9734 8.66806 11.7344 8.95193 11.7344C9.2358 11.7344 9.46806 11.9734 9.46806 12.2656C9.46806 13.7319 8.31193 14.9219 6.88741 14.9219ZM14.1132 13.8594C14.1132 14.1516 13.881 14.3906 13.5971 14.3906C13.3132 14.3906 13.081 14.6297 13.081 14.9219C13.081 15.2141 12.8487 15.4531 12.5648 15.4531C12.281 15.4531 12.0487 15.2141 12.0487 14.9219C12.0487 14.0453 12.7455 13.3281 13.5971 13.3281C13.881 13.3281 14.1132 13.5672 14.1132 13.8594ZM13.081 7.48438C13.3648 7.48438 13.5971 7.72344 13.5971 8.01562C13.5971 8.30781 13.3648 8.54688 13.081 8.54688C12.7971 8.54688 12.5648 8.78594 12.5648 9.07812C12.5648 9.37031 12.3326 9.60938 12.0487 9.60938C11.7648 9.60938 11.5326 9.37031 11.5326 9.07812C11.5326 8.20156 12.2293 7.48438 13.081 7.48438ZM12.0487 12.2656C12.0487 12.5578 11.8164 12.7969 11.5326 12.7969C11.2487 12.7969 11.0164 12.5578 11.0164 12.2656C11.0164 11.0916 10.0926 10.1406 8.95193 10.1406C8.3687 10.1406 7.81128 10.3956 7.41902 10.8419C7.22806 11.0597 6.9029 11.0756 6.69128 10.8844C6.47967 10.6825 6.45902 10.3478 6.64999 10.13C7.23838 9.46062 8.07451 9.07812 8.95193 9.07812C10.6603 9.07812 12.0487 10.5072 12.0487 12.2656Z" fill="#101011"/>
<path d="M26.8652 7.04688C25.9371 7.04688 25.1777 7.8183 25.1777 8.76116C25.1777 9.70402 25.9371 10.4754 26.8652 10.4754C27.5965 10.4754 28.2152 9.99545 28.4515 9.33259H29.8971L31.2809 12.144C30.9884 12.4526 30.8027 12.8697 30.8027 13.3326C30.8027 14.2754 31.5621 15.0469 32.4902 15.0469C33.4184 15.0469 34.1777 14.2754 34.1777 13.3326C34.1777 12.3897 33.4184 11.6183 32.4902 11.6183C32.4227 11.6183 32.3552 11.6297 32.2877 11.6412L30.7409 8.50973C30.6452 8.31545 30.4484 8.19545 30.2402 8.19545H28.4515C28.2209 7.53259 27.6021 7.05259 26.8652 7.05259V7.04688ZM33.0527 13.3326C33.0527 13.6469 32.7996 13.904 32.4902 13.904C32.1809 13.904 31.9277 13.6469 31.9277 13.3326C31.9277 13.0183 32.1809 12.7612 32.4902 12.7612C32.7996 12.7612 33.0527 13.0183 33.0527 13.3326ZM26.8652 9.33259C26.5559 9.33259 26.3027 9.07545 26.3027 8.76116C26.3027 8.44688 26.5559 8.18973 26.8652 8.18973C27.1746 8.18973 27.4277 8.44688 27.4277 8.76116C27.4277 9.07545 27.1746 9.33259 26.8652 9.33259Z" fill="#101011"/>
<path d="M19.682 11.4754C20.3318 11.4754 20.8815 10.9954 21.0914 10.3326H23.4753L26.329 13.5954C26.2341 13.8183 26.1791 14.064 26.1791 14.3326C26.1791 15.2754 26.8538 16.0469 27.6784 16.0469C28.503 16.0469 29.1777 15.2754 29.1777 14.3326C29.1777 13.3897 28.503 12.6183 27.6784 12.6183C27.4485 12.6183 27.2336 12.6812 27.0337 12.7897L24.0301 9.35545C23.9351 9.24688 23.8102 9.18973 23.6752 9.18973H21.0864C20.8815 8.52688 20.3318 8.04688 19.6771 8.04688C18.8524 8.04688 18.1777 8.8183 18.1777 9.76116C18.1777 10.704 18.8524 11.4754 19.6771 11.4754H19.682ZM28.1782 14.3326C28.1782 14.6469 27.9533 14.904 27.6784 14.904C27.4035 14.904 27.1786 14.6469 27.1786 14.3326C27.1786 14.1783 27.2336 14.0354 27.3236 13.9326C27.3236 13.9326 27.3236 13.9326 27.3286 13.9326C27.3336 13.9326 27.3286 13.9326 27.3286 13.9269C27.4185 13.824 27.5385 13.7612 27.6784 13.7612C27.9533 13.7612 28.1782 14.0183 28.1782 14.3326ZM19.682 9.18973C19.9569 9.18973 20.1818 9.44688 20.1818 9.76116C20.1818 10.0754 19.9569 10.3326 19.682 10.3326C19.4072 10.3326 19.1823 10.0754 19.1823 9.76116C19.1823 9.44688 19.4072 9.18973 19.682 9.18973Z" fill="#101011"/>
<path d="M26.5111 24.0469C25.7888 24.0469 25.1777 24.5509 24.9444 25.2469H22.6222C22.3166 25.2469 22.0666 25.5169 22.0666 25.8469V28.8469H18.7333C18.4277 28.8469 18.1777 29.1169 18.1777 29.4469C18.1777 29.7769 18.4277 30.0469 18.7333 30.0469H22.6222C22.9277 30.0469 23.1777 29.7769 23.1777 29.4469V26.4469H24.9444C25.1722 27.1429 25.7833 27.6469 26.5111 27.6469C27.4277 27.6469 28.1777 26.8369 28.1777 25.8469C28.1777 24.8569 27.4277 24.0469 26.5111 24.0469ZM26.5111 26.4469C26.2055 26.4469 25.9555 26.1769 25.9555 25.8469C25.9555 25.5169 26.2055 25.2469 26.5111 25.2469C26.8166 25.2469 27.0666 25.5169 27.0666 25.8469C27.0666 26.1769 26.8166 26.4469 26.5111 26.4469Z" fill="#101011"/>
<path d="M31.173 26.7218V24.9049C31.173 24.7507 31.1181 24.6078 31.0281 24.4993L29.0287 22.214C28.8338 21.9912 28.5189 21.9912 28.3239 22.214C28.129 22.4368 28.129 22.7967 28.3239 23.0196L30.1784 25.1392V26.7218C29.5985 26.956 29.1787 27.5845 29.1787 28.3329C29.1787 29.2756 29.8535 30.0469 30.6782 30.0469C31.5029 30.0469 32.1777 29.2756 32.1777 28.3329C32.1777 27.5902 31.7579 26.9617 31.178 26.7218H31.173ZM30.6732 28.9042C30.3983 28.9042 30.1734 28.6471 30.1734 28.3329C30.1734 28.0187 30.3983 27.7616 30.6732 27.7616C30.9481 27.7616 31.173 28.0187 31.173 28.3329C31.173 28.6471 30.9481 28.9042 30.6732 28.9042Z" fill="#101011"/>
<path d="M33.1777 19.1369V16.5469C33.1777 16.2719 32.9527 16.0469 32.6777 16.0469C32.4027 16.0469 32.1777 16.2719 32.1777 16.5469V19.1369C31.5977 19.3419 31.1777 19.8919 31.1777 20.5469C31.1777 21.3719 31.8527 22.0469 32.6777 22.0469C33.5027 22.0469 34.1777 21.3719 34.1777 20.5469C34.1777 19.8969 33.7577 19.3469 33.1777 19.1369ZM32.6777 21.0469C32.4027 21.0469 32.1777 20.8219 32.1777 20.5469C32.1777 20.2719 32.4027 20.0469 32.6777 20.0469C32.9527 20.0469 33.1777 20.2719 33.1777 20.5469C33.1777 20.8219 32.9527 21.0469 32.6777 21.0469Z" fill="#101011"/>
<path d="M19.7775 21.0413C20.4707 21.0413 21.0573 20.5748 21.2812 19.9305H22.9769C23.1209 19.9305 23.2542 19.8694 23.3555 19.7695L26.0218 16.9924C26.2297 16.7758 26.2297 16.4259 26.0218 16.2093C25.8138 15.9927 25.4779 15.9927 25.2699 16.2093L22.7583 18.8253H21.2812C21.0626 18.181 20.476 17.7145 19.7775 17.7145C18.8976 17.7145 18.1777 18.4643 18.1777 19.3807C18.1777 20.2971 18.8976 21.0469 19.7775 21.0469V21.0413ZM19.7775 18.8197C20.0708 18.8197 20.3107 19.0696 20.3107 19.3751C20.3107 19.6806 20.0708 19.9305 19.7775 19.9305C19.4842 19.9305 19.2442 19.6806 19.2442 19.3751C19.2442 19.0696 19.4842 18.8197 19.7775 18.8197Z" fill="#101011"/>
<path d="M19.7377 28.0469C20.5986 28.0469 21.303 27.3044 21.303 26.3969C21.303 25.6819 20.8647 25.0769 20.2595 24.8459V23.6469H24.4334C24.5743 23.6469 24.7047 23.5864 24.8038 23.4874L27.9395 20.1819C28.143 20.2864 28.3673 20.3469 28.6125 20.3469C29.4734 20.3469 30.1777 19.6044 30.1777 18.6969C30.1777 17.7894 29.4734 17.0469 28.6125 17.0469C27.7516 17.0469 27.0473 17.7894 27.0473 18.6969C27.0473 18.9499 27.1047 19.1864 27.2038 19.4064L24.2247 22.5469H19.743C19.456 22.5469 19.2212 22.7944 19.2212 23.0969V24.8459C18.616 25.0714 18.1777 25.6764 18.1777 26.3969C18.1777 27.3044 18.8821 28.0469 19.743 28.0469H19.7377ZM28.6073 18.1469C28.8943 18.1469 29.129 18.3944 29.129 18.6969C29.129 18.9994 28.8943 19.2469 28.6073 19.2469C28.4664 19.2469 28.336 19.1864 28.2421 19.0874C28.2421 19.0874 28.2421 19.0874 28.2421 19.0819C28.2421 19.0764 28.2421 19.0819 28.2369 19.0819C28.143 18.9829 28.0856 18.8509 28.0856 18.6969C28.0856 18.3944 28.3203 18.1469 28.6073 18.1469ZM19.7377 25.8469C20.0247 25.8469 20.2595 26.0944 20.2595 26.3969C20.2595 26.6994 20.0247 26.9469 19.7377 26.9469C19.4508 26.9469 19.216 26.6994 19.216 26.3969C19.216 26.0944 19.4508 25.8469 19.7377 25.8469Z" fill="#101011"/>
<path d="M18.6222 5.04688H20.8444C21.0888 5.04688 21.2888 4.82188 21.2888 4.54688V2.95688C21.8044 2.75188 22.1777 2.20187 22.1777 1.54688C22.1777 0.721875 21.5777 0.046875 20.8444 0.046875C20.1111 0.046875 19.5111 0.721875 19.5111 1.54688C19.5111 2.19687 19.8844 2.74688 20.4 2.95688V4.04688H18.6222C18.3777 4.04688 18.1777 4.27187 18.1777 4.54688C18.1777 4.82188 18.3777 5.04688 18.6222 5.04688ZM20.8444 1.04688C21.0888 1.04688 21.2888 1.27187 21.2888 1.54688C21.2888 1.82188 21.0888 2.04688 20.8444 2.04688C20.6 2.04688 20.4 1.82188 20.4 1.54688C20.4 1.27187 20.6 1.04688 20.8444 1.04688Z" fill="#101011"/>
<path d="M18.7015 7.04688H22.892C23.0544 7.04688 23.2115 6.97188 23.3111 6.84688L24.7254 5.04688H26.1292C26.3439 5.62687 26.9201 6.04688 27.6063 6.04688C28.4706 6.04688 29.1777 5.37187 29.1777 4.54688C29.1777 3.72188 28.4706 3.04688 27.6063 3.04688C26.9254 3.04688 26.3492 3.46688 26.1292 4.04688H24.4634C24.3011 4.04688 24.1439 4.12187 24.0444 4.24687L22.6301 6.04688H18.7015C18.4134 6.04688 18.1777 6.27187 18.1777 6.54688C18.1777 6.82188 18.4134 7.04688 18.7015 7.04688ZM27.6063 4.04688C27.8944 4.04688 28.1301 4.27187 28.1301 4.54688C28.1301 4.82188 27.8944 5.04688 27.6063 5.04688C27.3182 5.04688 27.0825 4.82188 27.0825 4.54688C27.0825 4.27187 27.3182 4.04688 27.6063 4.04688Z" fill="#101011"/>
<path d="M18.6777 15.0469H21.2677C21.4727 15.6269 22.0227 16.0469 22.6777 16.0469C23.5027 16.0469 24.1777 15.3719 24.1777 14.5469C24.1777 13.7219 23.5027 13.0469 22.6777 13.0469C22.0277 13.0469 21.4777 13.4669 21.2677 14.0469H18.6777C18.4027 14.0469 18.1777 14.2719 18.1777 14.5469C18.1777 14.8219 18.4027 15.0469 18.6777 15.0469ZM22.6777 14.0469C22.9527 14.0469 23.1777 14.2719 23.1777 14.5469C23.1777 14.8219 22.9527 15.0469 22.6777 15.0469C22.4027 15.0469 22.1777 14.8219 22.1777 14.5469C22.1777 14.2719 22.4027 14.0469 22.6777 14.0469Z" fill="#101011"/>
<path d="M26.2377 29.263L24.2783 31.827H21.2598C21.0427 31.1832 20.4601 30.717 19.7664 30.717C18.8926 30.717 18.1777 31.4662 18.1777 32.3819C18.1777 33.2977 18.8926 34.0469 19.7664 34.0469C20.4549 34.0469 21.0374 33.5807 21.2598 32.9369H24.5325C24.6913 32.9369 24.8449 32.8592 24.9455 32.726L27.0638 29.9511C27.2438 29.7125 27.2068 29.3629 26.9791 29.1686C26.7513 28.9744 26.4177 29.0188 26.2324 29.2574L26.2377 29.263ZM19.7664 32.9369C19.4752 32.9369 19.2369 32.6872 19.2369 32.3819C19.2369 32.0767 19.4752 31.827 19.7664 31.827C20.0577 31.827 20.296 32.0767 20.296 32.3819C20.296 32.6872 20.0577 32.9369 19.7664 32.9369Z" fill="#101011"/>
</svg>
